<mxfile host="app.diagrams.net" modified="2020-10-11T11:24:23.221Z" agent="5.0 (X11; Linux x86_64) AppleWebKit/537.36 (KHTML, like Gecko) Chrome/85.0.4183.121 Safari/537.36" etag="AKdjqRd1kCaHyx1DVDxx" version="13.7.9" type="github">
  <diagram id="F_qcPq7MR6brmlPEMF5c" name="Page-1">
    <mxGraphModel dx="1596" dy="914" grid="1" gridSize="10" guides="1" tooltips="1" connect="1" arrows="1" fold="1" page="1" pageScale="1" pageWidth="827" pageHeight="1169" math="0" shadow="0">
      <root>
        <mxCell id="0" />
        <mxCell id="1" parent="0" />
        <mxCell id="waWkEZUE0Ls55BU8JHt7-172" value="Power Grid" style="swimlane;childLayout=stackLayout;horizontal=1;startSize=30;horizontalStack=0;rounded=1;fontSize=14;fontStyle=0;strokeWidth=2;resizeParent=0;resizeLast=1;shadow=0;dashed=0;align=center;" parent="1" vertex="1">
          <mxGeometry x="60" y="50" width="160" height="90" as="geometry" />
        </mxCell>
        <mxCell id="waWkEZUE0Ls55BU8JHt7-173" value="+Bus bars&#xa;+Power Lines&#xa;+Transformers" style="align=left;strokeColor=none;fillColor=none;spacingLeft=4;fontSize=12;verticalAlign=top;resizable=0;rotatable=0;part=1;" parent="waWkEZUE0Ls55BU8JHt7-172" vertex="1">
          <mxGeometry y="30" width="160" height="60" as="geometry" />
        </mxCell>
        <mxCell id="waWkEZUE0Ls55BU8JHt7-174" value="Transformer" style="swimlane;childLayout=stackLayout;horizontal=1;startSize=30;horizontalStack=0;rounded=1;fontSize=14;fontStyle=0;strokeWidth=2;resizeParent=0;resizeLast=1;shadow=0;dashed=0;align=center;" parent="1" vertex="1">
          <mxGeometry x="60" y="200" width="160" height="120" as="geometry" />
        </mxCell>
        <mxCell id="waWkEZUE0Ls55BU8JHt7-175" value="+ID&#xa;+Voltage 1&#xa;+Voltage 2&#xa;+Bus bar 1&#xa;+Bus bar 2" style="align=left;strokeColor=none;fillColor=none;spacingLeft=4;fontSize=12;verticalAlign=top;resizable=0;rotatable=0;part=1;" parent="waWkEZUE0Ls55BU8JHt7-174" vertex="1">
          <mxGeometry y="30" width="160" height="90" as="geometry" />
        </mxCell>
        <mxCell id="waWkEZUE0Ls55BU8JHt7-176" value="Power Line" style="swimlane;childLayout=stackLayout;horizontal=1;startSize=30;horizontalStack=0;rounded=1;fontSize=14;fontStyle=0;strokeWidth=2;resizeParent=0;resizeLast=1;shadow=0;dashed=0;align=center;" parent="1" vertex="1">
          <mxGeometry x="264" y="60" width="160" height="120" as="geometry" />
        </mxCell>
        <mxCell id="waWkEZUE0Ls55BU8JHt7-177" value="+ID&#xa;+Impedance&#xa;+Bus bar1&#xa;+Bus bar2" style="align=left;strokeColor=none;fillColor=none;spacingLeft=4;fontSize=12;verticalAlign=top;resizable=0;rotatable=0;part=1;" parent="waWkEZUE0Ls55BU8JHt7-176" vertex="1">
          <mxGeometry y="30" width="160" height="90" as="geometry" />
        </mxCell>
        <mxCell id="waWkEZUE0Ls55BU8JHt7-178" value="DÃ™VIDAS:&amp;nbsp;&lt;br&gt;-Breaker entre Power Line e Bus bar &lt;b&gt;OU &lt;/b&gt;alinhado em paralelo" style="text;html=1;fillColor=none;align=center;verticalAlign=middle;whiteSpace=wrap;rounded=0;strokeColor=#FF0000;" parent="1" vertex="1">
          <mxGeometry x="660" y="50" width="160" height="110" as="geometry" />
        </mxCell>
        <mxCell id="waWkEZUE0Ls55BU8JHt7-179" value="Bus bar" style="swimlane;childLayout=stackLayout;horizontal=1;startSize=30;horizontalStack=0;rounded=1;fontSize=14;fontStyle=0;strokeWidth=2;resizeParent=0;resizeLast=1;shadow=0;dashed=0;align=center;" parent="1" vertex="1">
          <mxGeometry x="470" y="50" width="160" height="120" as="geometry" />
        </mxCell>
        <mxCell id="waWkEZUE0Ls55BU8JHt7-180" value="+ID&#xa;+Voltage&#xa;+Transformer1&#xa;+Transformer2" style="align=left;strokeColor=none;fillColor=none;spacingLeft=4;fontSize=12;verticalAlign=top;resizable=0;rotatable=0;part=1;" parent="waWkEZUE0Ls55BU8JHt7-179" vertex="1">
          <mxGeometry y="30" width="160" height="90" as="geometry" />
        </mxCell>
        <mxCell id="waWkEZUE0Ls55BU8JHt7-181" value="Breaker" style="swimlane;childLayout=stackLayout;horizontal=1;startSize=30;horizontalStack=0;rounded=1;fontSize=14;fontStyle=0;strokeWidth=2;resizeParent=0;resizeLast=1;shadow=0;dashed=0;align=center;" parent="1" vertex="1">
          <mxGeometry x="264" y="210" width="160" height="120" as="geometry" />
        </mxCell>
        <mxCell id="waWkEZUE0Ls55BU8JHt7-182" value="+ID&#xa;+MAXCurrent&#xa;+MAXVoltage&#xa;+ConnectionPoints" style="align=left;strokeColor=none;fillColor=none;spacingLeft=4;fontSize=12;verticalAlign=top;resizable=0;rotatable=0;part=1;" parent="waWkEZUE0Ls55BU8JHt7-181" vertex="1">
          <mxGeometry y="30" width="160" height="90" as="geometry" />
        </mxCell>
        <mxCell id="waWkEZUE0Ls55BU8JHt7-183" value="Substation" style="swimlane;childLayout=stackLayout;horizontal=1;startSize=30;horizontalStack=0;rounded=1;fontSize=14;fontStyle=0;strokeWidth=2;resizeParent=0;resizeLast=1;shadow=0;dashed=0;align=center;" parent="1" vertex="1">
          <mxGeometry x="490" y="210" width="160" height="120" as="geometry" />
        </mxCell>
        <mxCell id="waWkEZUE0Ls55BU8JHt7-184" value="+ID&#xa;+GPS coordinates&#xa;+name&#xa;+ONLY 1supervisor" style="align=left;strokeColor=none;fillColor=none;spacingLeft=4;fontSize=12;verticalAlign=top;resizable=0;rotatable=0;part=1;" parent="waWkEZUE0Ls55BU8JHt7-183" vertex="1">
          <mxGeometry y="30" width="160" height="90" as="geometry" />
        </mxCell>
        <mxCell id="waWkEZUE0Ls55BU8JHt7-185" value="Supervisor" style="swimlane;childLayout=stackLayout;horizontal=1;startSize=30;horizontalStack=0;rounded=1;fontSize=14;fontStyle=0;strokeWidth=2;resizeParent=0;resizeLast=1;shadow=0;dashed=0;align=center;" parent="1" vertex="1">
          <mxGeometry x="677" y="210" width="160" height="120" as="geometry" />
        </mxCell>
        <mxCell id="waWkEZUE0Ls55BU8JHt7-186" value="+ID&#xa;+Substations(1 to many)&#xa;+Voltage?!?!?!!?&#xa;+person" style="align=left;strokeColor=none;fillColor=none;spacingLeft=4;fontSize=12;verticalAlign=top;resizable=0;rotatable=0;part=1;" parent="waWkEZUE0Ls55BU8JHt7-185" vertex="1">
          <mxGeometry y="30" width="160" height="90" as="geometry" />
        </mxCell>
        <mxCell id="waWkEZUE0Ls55BU8JHt7-187" value="Incident" style="swimlane;childLayout=stackLayout;horizontal=1;startSize=30;horizontalStack=0;rounded=1;fontSize=14;fontStyle=0;strokeWidth=2;resizeParent=0;resizeLast=1;shadow=0;dashed=0;align=center;fillColor=#f8cecc;strokeColor=#b85450;" parent="1" vertex="1">
          <mxGeometry x="80" y="350" width="160" height="180" as="geometry" />
        </mxCell>
        <mxCell id="waWkEZUE0Ls55BU8JHt7-188" value="+ID&#xa;+Instant&#xa;+Description&#xa;+Severaty&#xa;+point of the line(for lines)&#xa;+analyst" style="align=left;strokeColor=none;fillColor=none;spacingLeft=4;fontSize=12;verticalAlign=top;resizable=0;rotatable=0;part=1;" parent="waWkEZUE0Ls55BU8JHt7-187" vertex="1">
          <mxGeometry y="30" width="160" height="150" as="geometry" />
        </mxCell>
        <mxCell id="waWkEZUE0Ls55BU8JHt7-189" value="History" style="swimlane;childLayout=stackLayout;horizontal=1;startSize=30;horizontalStack=0;rounded=1;fontSize=14;fontStyle=0;strokeWidth=2;resizeParent=0;resizeLast=1;shadow=0;dashed=0;align=center;fillColor=#FFFFFF;" parent="1" vertex="1">
          <mxGeometry x="310" y="370" width="130" height="100" as="geometry" />
        </mxCell>
        <mxCell id="waWkEZUE0Ls55BU8JHt7-190" value="+ConnectionPoint&#xa;+Voltage&#xa;+Current&#xa;+Date&amp;Time&#xa;&#xa;" style="align=left;strokeColor=none;fillColor=none;spacingLeft=4;fontSize=12;verticalAlign=top;resizable=0;rotatable=0;part=1;" parent="waWkEZUE0Ls55BU8JHt7-189" vertex="1">
          <mxGeometry y="30" width="130" height="70" as="geometry" />
        </mxCell>
        <mxCell id="waWkEZUE0Ls55BU8JHt7-191" value="Connections" style="swimlane;childLayout=stackLayout;horizontal=1;startSize=30;horizontalStack=0;rounded=1;fontSize=14;fontStyle=0;strokeWidth=2;resizeParent=0;resizeLast=1;shadow=0;dashed=0;align=center;fillColor=#f8cecc;strokeColor=#b85450;" parent="1" vertex="1">
          <mxGeometry x="517" y="370" width="103" height="80" as="geometry" />
        </mxCell>
        <mxCell id="waWkEZUE0Ls55BU8JHt7-192" value="+PoweLine&#xa;+Transformer" style="align=left;strokeColor=none;fillColor=none;spacingLeft=4;fontSize=12;verticalAlign=top;resizable=0;rotatable=0;part=1;" parent="waWkEZUE0Ls55BU8JHt7-191" vertex="1">
          <mxGeometry y="30" width="103" height="50" as="geometry" />
        </mxCell>
        <mxCell id="waWkEZUE0Ls55BU8JHt7-193" value="Analyst" style="swimlane;childLayout=stackLayout;horizontal=1;startSize=30;horizontalStack=0;rounded=1;fontSize=14;fontStyle=0;strokeWidth=2;resizeParent=0;resizeLast=1;shadow=0;dashed=0;align=center;fillColor=#FFFFFF;" parent="1" vertex="1">
          <mxGeometry x="320" y="499" width="160" height="120" as="geometry" />
        </mxCell>
        <mxCell id="waWkEZUE0Ls55BU8JHt7-194" value="+Person&#xa;+Cause&#xa;+Report" style="align=left;strokeColor=none;fillColor=none;spacingLeft=4;fontSize=12;verticalAlign=top;resizable=0;rotatable=0;part=1;" parent="waWkEZUE0Ls55BU8JHt7-193" vertex="1">
          <mxGeometry y="30" width="160" height="90" as="geometry" />
        </mxCell>
        <mxCell id="waWkEZUE0Ls55BU8JHt7-195" value="Person" style="swimlane;childLayout=stackLayout;horizontal=1;startSize=30;horizontalStack=0;rounded=1;fontSize=14;fontStyle=0;strokeWidth=2;resizeParent=0;resizeLast=1;shadow=0;dashed=0;align=center;fillColor=#FFFFFF;" parent="1" vertex="1">
          <mxGeometry x="690" y="460" width="160" height="120" as="geometry" />
        </mxCell>
        <mxCell id="waWkEZUE0Ls55BU8JHt7-196" value="+name&#xa;+address&#xa;+phone contact&#xa;+Tax payer ID&#xa;+" style="align=left;strokeColor=none;fillColor=none;spacingLeft=4;fontSize=12;verticalAlign=top;resizable=0;rotatable=0;part=1;" parent="waWkEZUE0Ls55BU8JHt7-195" vertex="1">
          <mxGeometry y="30" width="160" height="90" as="geometry" />
        </mxCell>
        <mxCell id="waWkEZUE0Ls55BU8JHt7-197" value="Person" style="rounded=0;whiteSpace=wrap;html=1;" parent="1" vertex="1">
          <mxGeometry x="340" y="939" width="120" height="60" as="geometry" />
        </mxCell>
        <mxCell id="waWkEZUE0Ls55BU8JHt7-198" style="edgeStyle=orthogonalEdgeStyle;rounded=0;orthogonalLoop=1;jettySize=auto;html=1;entryX=0;entryY=0.5;entryDx=0;entryDy=0;endArrow=none;endFill=0;" parent="1" source="waWkEZUE0Ls55BU8JHt7-199" target="waWkEZUE0Ls55BU8JHt7-204" edge="1">
          <mxGeometry relative="1" as="geometry">
            <Array as="points">
              <mxPoint x="400" y="1129" />
            </Array>
          </mxGeometry>
        </mxCell>
        <mxCell id="waWkEZUE0Ls55BU8JHt7-199" value="" style="triangle;whiteSpace=wrap;html=1;direction=north;" parent="1" vertex="1">
          <mxGeometry x="360" y="1009" width="80" height="60" as="geometry" />
        </mxCell>
        <mxCell id="waWkEZUE0Ls55BU8JHt7-200" style="edgeStyle=orthogonalEdgeStyle;rounded=0;orthogonalLoop=1;jettySize=auto;html=1;endArrow=none;endFill=0;" parent="1" source="waWkEZUE0Ls55BU8JHt7-202" target="waWkEZUE0Ls55BU8JHt7-224" edge="1">
          <mxGeometry relative="1" as="geometry" />
        </mxCell>
        <mxCell id="waWkEZUE0Ls55BU8JHt7-201" style="edgeStyle=orthogonalEdgeStyle;rounded=0;orthogonalLoop=1;jettySize=auto;html=1;entryX=0;entryY=0.5;entryDx=0;entryDy=0;endArrow=none;endFill=0;" parent="1" source="waWkEZUE0Ls55BU8JHt7-202" target="waWkEZUE0Ls55BU8JHt7-199" edge="1">
          <mxGeometry relative="1" as="geometry" />
        </mxCell>
        <mxCell id="waWkEZUE0Ls55BU8JHt7-202" value="Analyst" style="rounded=0;whiteSpace=wrap;html=1;" parent="1" vertex="1">
          <mxGeometry x="180" y="1099" width="120" height="60" as="geometry" />
        </mxCell>
        <mxCell id="waWkEZUE0Ls55BU8JHt7-203" style="edgeStyle=orthogonalEdgeStyle;rounded=0;orthogonalLoop=1;jettySize=auto;html=1;entryX=0;entryY=0.5;entryDx=0;entryDy=0;endArrow=none;endFill=0;entryPerimeter=0;" parent="1" source="waWkEZUE0Ls55BU8JHt7-204" target="waWkEZUE0Ls55BU8JHt7-220" edge="1">
          <mxGeometry relative="1" as="geometry" />
        </mxCell>
        <mxCell id="waWkEZUE0Ls55BU8JHt7-204" value="Supervisor" style="rounded=0;whiteSpace=wrap;html=1;" parent="1" vertex="1">
          <mxGeometry x="450" y="1099" width="120" height="60" as="geometry" />
        </mxCell>
        <mxCell id="waWkEZUE0Ls55BU8JHt7-205" value="" style="endArrow=none;html=1;entryX=0.5;entryY=1;entryDx=0;entryDy=0;exitX=1;exitY=0.5;exitDx=0;exitDy=0;" parent="1" source="waWkEZUE0Ls55BU8JHt7-199" target="waWkEZUE0Ls55BU8JHt7-197" edge="1">
          <mxGeometry width="50" height="50" relative="1" as="geometry">
            <mxPoint x="320" y="1029" as="sourcePoint" />
            <mxPoint x="370" y="979" as="targetPoint" />
          </mxGeometry>
        </mxCell>
        <mxCell id="waWkEZUE0Ls55BU8JHt7-206" style="edgeStyle=orthogonalEdgeStyle;rounded=0;orthogonalLoop=1;jettySize=auto;html=1;entryX=0;entryY=0.5;entryDx=0;entryDy=0;endArrow=none;endFill=0;" parent="1" source="waWkEZUE0Ls55BU8JHt7-208" target="waWkEZUE0Ls55BU8JHt7-214" edge="1">
          <mxGeometry relative="1" as="geometry" />
        </mxCell>
        <mxCell id="waWkEZUE0Ls55BU8JHt7-207" value="" style="edgeStyle=orthogonalEdgeStyle;rounded=0;orthogonalLoop=1;jettySize=auto;html=1;endArrow=classic;endFill=1;shape=link;" parent="1" source="waWkEZUE0Ls55BU8JHt7-208" target="waWkEZUE0Ls55BU8JHt7-214" edge="1">
          <mxGeometry relative="1" as="geometry" />
        </mxCell>
        <mxCell id="waWkEZUE0Ls55BU8JHt7-208" value="Power Line" style="rounded=0;whiteSpace=wrap;html=1;" parent="1" vertex="1">
          <mxGeometry x="130" y="670" width="120" height="60" as="geometry" />
        </mxCell>
        <mxCell id="waWkEZUE0Ls55BU8JHt7-209" style="edgeStyle=orthogonalEdgeStyle;rounded=0;orthogonalLoop=1;jettySize=auto;html=1;endArrow=none;endFill=0;" parent="1" source="waWkEZUE0Ls55BU8JHt7-211" target="waWkEZUE0Ls55BU8JHt7-214" edge="1">
          <mxGeometry relative="1" as="geometry" />
        </mxCell>
        <mxCell id="waWkEZUE0Ls55BU8JHt7-210" style="edgeStyle=orthogonalEdgeStyle;rounded=0;orthogonalLoop=1;jettySize=auto;html=1;entryX=0;entryY=0.5;entryDx=0;entryDy=0;endArrow=none;endFill=0;" parent="1" source="waWkEZUE0Ls55BU8JHt7-211" target="waWkEZUE0Ls55BU8JHt7-215" edge="1">
          <mxGeometry relative="1" as="geometry" />
        </mxCell>
        <mxCell id="waWkEZUE0Ls55BU8JHt7-211" value="Bus Bar" style="rounded=0;whiteSpace=wrap;html=1;" parent="1" vertex="1">
          <mxGeometry x="410" y="670" width="120" height="60" as="geometry" />
        </mxCell>
        <mxCell id="waWkEZUE0Ls55BU8JHt7-212" style="edgeStyle=orthogonalEdgeStyle;rounded=0;orthogonalLoop=1;jettySize=auto;html=1;endArrow=none;endFill=0;shape=link;" parent="1" source="waWkEZUE0Ls55BU8JHt7-213" target="waWkEZUE0Ls55BU8JHt7-215" edge="1">
          <mxGeometry relative="1" as="geometry" />
        </mxCell>
        <mxCell id="waWkEZUE0Ls55BU8JHt7-213" value="Transformer" style="rounded=0;whiteSpace=wrap;html=1;" parent="1" vertex="1">
          <mxGeometry x="680" y="670" width="120" height="60" as="geometry" />
        </mxCell>
        <mxCell id="waWkEZUE0Ls55BU8JHt7-214" value="" style="rhombus;whiteSpace=wrap;html=1;" parent="1" vertex="1">
          <mxGeometry x="300" y="670" width="60" height="60" as="geometry" />
        </mxCell>
        <mxCell id="waWkEZUE0Ls55BU8JHt7-215" value="" style="rhombus;whiteSpace=wrap;html=1;" parent="1" vertex="1">
          <mxGeometry x="580" y="670" width="60" height="60" as="geometry" />
        </mxCell>
        <mxCell id="waWkEZUE0Ls55BU8JHt7-216" value="Connects 2 bus bar &amp;gt;" style="text;html=1;strokeColor=none;fillColor=none;align=center;verticalAlign=middle;whiteSpace=wrap;rounded=0;" parent="1" vertex="1">
          <mxGeometry x="295" y="740" width="70" height="20" as="geometry" />
        </mxCell>
        <mxCell id="waWkEZUE0Ls55BU8JHt7-217" value="&amp;lt; Connects 2 bus bar&amp;nbsp;" style="text;html=1;strokeColor=none;fillColor=none;align=center;verticalAlign=middle;whiteSpace=wrap;rounded=0;" parent="1" vertex="1">
          <mxGeometry x="575" y="740" width="70" height="20" as="geometry" />
        </mxCell>
        <mxCell id="waWkEZUE0Ls55BU8JHt7-218" style="edgeStyle=orthogonalEdgeStyle;rounded=0;orthogonalLoop=1;jettySize=auto;html=1;entryX=1;entryY=0.5;entryDx=0;entryDy=0;endArrow=classicThin;endFill=1;" parent="1" source="waWkEZUE0Ls55BU8JHt7-219" target="waWkEZUE0Ls55BU8JHt7-220" edge="1">
          <mxGeometry relative="1" as="geometry" />
        </mxCell>
        <mxCell id="waWkEZUE0Ls55BU8JHt7-219" value="Substation" style="rounded=0;whiteSpace=wrap;html=1;" parent="1" vertex="1">
          <mxGeometry x="730" y="1099" width="120" height="60" as="geometry" />
        </mxCell>
        <mxCell id="waWkEZUE0Ls55BU8JHt7-220" value="" style="rhombus;whiteSpace=wrap;html=1;" parent="1" vertex="1">
          <mxGeometry x="620" y="1104" width="40" height="50" as="geometry" />
        </mxCell>
        <mxCell id="waWkEZUE0Ls55BU8JHt7-221" value="Works in &amp;gt;" style="text;html=1;strokeColor=none;fillColor=none;align=center;verticalAlign=middle;whiteSpace=wrap;rounded=0;" parent="1" vertex="1">
          <mxGeometry x="600" y="1159" width="71" height="20" as="geometry" />
        </mxCell>
        <mxCell id="waWkEZUE0Ls55BU8JHt7-222" style="edgeStyle=orthogonalEdgeStyle;rounded=0;orthogonalLoop=1;jettySize=auto;html=1;entryX=0.5;entryY=0;entryDx=0;entryDy=0;endArrow=classic;endFill=1;" parent="1" source="waWkEZUE0Ls55BU8JHt7-223" target="waWkEZUE0Ls55BU8JHt7-224" edge="1">
          <mxGeometry relative="1" as="geometry" />
        </mxCell>
        <mxCell id="waWkEZUE0Ls55BU8JHt7-223" value="Incident" style="rounded=0;whiteSpace=wrap;html=1;" parent="1" vertex="1">
          <mxGeometry x="50" y="950" width="120" height="60" as="geometry" />
        </mxCell>
        <mxCell id="waWkEZUE0Ls55BU8JHt7-224" value="" style="rhombus;whiteSpace=wrap;html=1;" parent="1" vertex="1">
          <mxGeometry x="90" y="1050" width="40" height="40" as="geometry" />
        </mxCell>
        <mxCell id="waWkEZUE0Ls55BU8JHt7-225" style="edgeStyle=orthogonalEdgeStyle;rounded=0;orthogonalLoop=1;jettySize=auto;html=1;exitX=0;exitY=0;exitDx=0;exitDy=0;endArrow=none;endFill=0;curved=1;" parent="1" source="waWkEZUE0Ls55BU8JHt7-228" target="waWkEZUE0Ls55BU8JHt7-229" edge="1">
          <mxGeometry relative="1" as="geometry" />
        </mxCell>
        <mxCell id="waWkEZUE0Ls55BU8JHt7-226" style="edgeStyle=orthogonalEdgeStyle;rounded=0;orthogonalLoop=1;jettySize=auto;html=1;exitX=1;exitY=0;exitDx=0;exitDy=0;curved=1;endArrow=none;endFill=0;" parent="1" source="waWkEZUE0Ls55BU8JHt7-228" target="waWkEZUE0Ls55BU8JHt7-230" edge="1">
          <mxGeometry relative="1" as="geometry" />
        </mxCell>
        <mxCell id="waWkEZUE0Ls55BU8JHt7-227" style="edgeStyle=orthogonalEdgeStyle;curved=1;rounded=0;orthogonalLoop=1;jettySize=auto;html=1;exitX=1;exitY=0.5;exitDx=0;exitDy=0;endArrow=none;endFill=0;shape=link;" parent="1" source="waWkEZUE0Ls55BU8JHt7-228" target="waWkEZUE0Ls55BU8JHt7-247" edge="1">
          <mxGeometry relative="1" as="geometry" />
        </mxCell>
        <mxCell id="waWkEZUE0Ls55BU8JHt7-228" value="Power Line" style="whiteSpace=wrap;html=1;align=center;" parent="1" vertex="1">
          <mxGeometry x="1410" y="940" width="100" height="40" as="geometry" />
        </mxCell>
        <mxCell id="waWkEZUE0Ls55BU8JHt7-229" value="id" style="ellipse;whiteSpace=wrap;html=1;align=center;" parent="1" vertex="1">
          <mxGeometry x="1340" y="870" width="100" height="40" as="geometry" />
        </mxCell>
        <mxCell id="waWkEZUE0Ls55BU8JHt7-230" value="impedance" style="ellipse;whiteSpace=wrap;html=1;align=center;" parent="1" vertex="1">
          <mxGeometry x="1490" y="870" width="100" height="40" as="geometry" />
        </mxCell>
        <mxCell id="waWkEZUE0Ls55BU8JHt7-231" style="edgeStyle=orthogonalEdgeStyle;rounded=0;orthogonalLoop=1;jettySize=auto;html=1;exitX=0;exitY=0;exitDx=0;exitDy=0;curved=1;endArrow=none;endFill=0;" parent="1" source="waWkEZUE0Ls55BU8JHt7-234" target="waWkEZUE0Ls55BU8JHt7-235" edge="1">
          <mxGeometry relative="1" as="geometry" />
        </mxCell>
        <mxCell id="waWkEZUE0Ls55BU8JHt7-232" style="edgeStyle=orthogonalEdgeStyle;rounded=0;orthogonalLoop=1;jettySize=auto;html=1;exitX=1;exitY=0;exitDx=0;exitDy=0;curved=1;endArrow=none;endFill=0;" parent="1" source="waWkEZUE0Ls55BU8JHt7-234" target="waWkEZUE0Ls55BU8JHt7-236" edge="1">
          <mxGeometry relative="1" as="geometry" />
        </mxCell>
        <mxCell id="waWkEZUE0Ls55BU8JHt7-233" style="edgeStyle=orthogonalEdgeStyle;rounded=0;orthogonalLoop=1;jettySize=auto;html=1;exitX=0.5;exitY=0;exitDx=0;exitDy=0;endArrow=none;endFill=0;" parent="1" source="waWkEZUE0Ls55BU8JHt7-234" target="waWkEZUE0Ls55BU8JHt7-292" edge="1">
          <mxGeometry relative="1" as="geometry">
            <Array as="points">
              <mxPoint x="1825" y="800" />
              <mxPoint x="1270" y="800" />
            </Array>
          </mxGeometry>
        </mxCell>
        <mxCell id="waWkEZUE0Ls55BU8JHt7-234" value="Bus Bar" style="whiteSpace=wrap;html=1;align=center;" parent="1" vertex="1">
          <mxGeometry x="1775" y="940" width="100" height="40" as="geometry" />
        </mxCell>
        <mxCell id="waWkEZUE0Ls55BU8JHt7-235" value="id" style="ellipse;whiteSpace=wrap;html=1;align=center;" parent="1" vertex="1">
          <mxGeometry x="1710" y="860" width="100" height="40" as="geometry" />
        </mxCell>
        <mxCell id="waWkEZUE0Ls55BU8JHt7-236" value="Voltage" style="ellipse;whiteSpace=wrap;html=1;align=center;" parent="1" vertex="1">
          <mxGeometry x="1855" y="870" width="100" height="40" as="geometry" />
        </mxCell>
        <mxCell id="waWkEZUE0Ls55BU8JHt7-237" style="edgeStyle=orthogonalEdgeStyle;rounded=0;orthogonalLoop=1;jettySize=auto;html=1;exitX=0;exitY=0;exitDx=0;exitDy=0;endArrow=none;endFill=0;curved=1;" parent="1" source="waWkEZUE0Ls55BU8JHt7-241" target="waWkEZUE0Ls55BU8JHt7-242" edge="1">
          <mxGeometry relative="1" as="geometry" />
        </mxCell>
        <mxCell id="waWkEZUE0Ls55BU8JHt7-238" style="edgeStyle=orthogonalEdgeStyle;rounded=0;orthogonalLoop=1;jettySize=auto;html=1;exitX=1;exitY=0;exitDx=0;exitDy=0;endArrow=none;endFill=0;curved=1;" parent="1" source="waWkEZUE0Ls55BU8JHt7-241" target="waWkEZUE0Ls55BU8JHt7-243" edge="1">
          <mxGeometry relative="1" as="geometry" />
        </mxCell>
        <mxCell id="waWkEZUE0Ls55BU8JHt7-239" style="edgeStyle=orthogonalEdgeStyle;rounded=0;orthogonalLoop=1;jettySize=auto;html=1;exitX=1;exitY=0.25;exitDx=0;exitDy=0;entryX=0;entryY=0.5;entryDx=0;entryDy=0;endArrow=none;endFill=0;curved=1;" parent="1" source="waWkEZUE0Ls55BU8JHt7-241" target="waWkEZUE0Ls55BU8JHt7-244" edge="1">
          <mxGeometry relative="1" as="geometry" />
        </mxCell>
        <mxCell id="waWkEZUE0Ls55BU8JHt7-240" style="edgeStyle=orthogonalEdgeStyle;shape=link;curved=1;rounded=0;orthogonalLoop=1;jettySize=auto;html=1;exitX=0;exitY=0.5;exitDx=0;exitDy=0;entryX=1;entryY=0.5;entryDx=0;entryDy=0;endArrow=none;endFill=0;" parent="1" source="waWkEZUE0Ls55BU8JHt7-241" target="waWkEZUE0Ls55BU8JHt7-251" edge="1">
          <mxGeometry relative="1" as="geometry" />
        </mxCell>
        <mxCell id="waWkEZUE0Ls55BU8JHt7-241" value="Transformer" style="whiteSpace=wrap;html=1;align=center;" parent="1" vertex="1">
          <mxGeometry x="2150" y="940" width="100" height="40" as="geometry" />
        </mxCell>
        <mxCell id="waWkEZUE0Ls55BU8JHt7-242" value="id" style="ellipse;whiteSpace=wrap;html=1;align=center;" parent="1" vertex="1">
          <mxGeometry x="2090" y="860" width="100" height="40" as="geometry" />
        </mxCell>
        <mxCell id="waWkEZUE0Ls55BU8JHt7-243" value="Voltage 1" style="ellipse;whiteSpace=wrap;html=1;align=center;" parent="1" vertex="1">
          <mxGeometry x="2240" y="860" width="100" height="40" as="geometry" />
        </mxCell>
        <mxCell id="waWkEZUE0Ls55BU8JHt7-244" value="Voltage 2" style="ellipse;whiteSpace=wrap;html=1;align=center;" parent="1" vertex="1">
          <mxGeometry x="2340" y="900" width="100" height="40" as="geometry" />
        </mxCell>
        <mxCell id="waWkEZUE0Ls55BU8JHt7-245" style="edgeStyle=orthogonalEdgeStyle;curved=1;rounded=0;orthogonalLoop=1;jettySize=auto;html=1;exitX=1;exitY=0.5;exitDx=0;exitDy=0;entryX=0;entryY=0.5;entryDx=0;entryDy=0;endArrow=none;endFill=0;" parent="1" source="waWkEZUE0Ls55BU8JHt7-247" target="waWkEZUE0Ls55BU8JHt7-234" edge="1">
          <mxGeometry relative="1" as="geometry" />
        </mxCell>
        <mxCell id="waWkEZUE0Ls55BU8JHt7-247" value="connects" style="shape=rhombus;perimeter=rhombusPerimeter;whiteSpace=wrap;html=1;align=center;" parent="1" vertex="1">
          <mxGeometry x="1600" y="930" width="80" height="60" as="geometry" />
        </mxCell>
        <mxCell id="waWkEZUE0Ls55BU8JHt7-248" value="IC-1" style="text;html=1;strokeColor=none;fillColor=none;align=center;verticalAlign=middle;whiteSpace=wrap;rounded=0;" parent="1" vertex="1">
          <mxGeometry x="1700" y="930" width="40" height="20" as="geometry" />
        </mxCell>
        <mxCell id="waWkEZUE0Ls55BU8JHt7-249" style="edgeStyle=orthogonalEdgeStyle;curved=1;rounded=0;orthogonalLoop=1;jettySize=auto;html=1;exitX=0;exitY=0.5;exitDx=0;exitDy=0;entryX=1;entryY=0.5;entryDx=0;entryDy=0;endArrow=none;endFill=0;" parent="1" source="waWkEZUE0Ls55BU8JHt7-251" target="waWkEZUE0Ls55BU8JHt7-234" edge="1">
          <mxGeometry relative="1" as="geometry" />
        </mxCell>
        <mxCell id="waWkEZUE0Ls55BU8JHt7-251" value="connects" style="shape=rhombus;perimeter=rhombusPerimeter;whiteSpace=wrap;html=1;align=center;" parent="1" vertex="1">
          <mxGeometry x="1980" y="930" width="80" height="60" as="geometry" />
        </mxCell>
        <mxCell id="waWkEZUE0Ls55BU8JHt7-252" value="IC-2" style="text;html=1;strokeColor=none;fillColor=none;align=center;verticalAlign=middle;whiteSpace=wrap;rounded=0;" parent="1" vertex="1">
          <mxGeometry x="2078" y="930" width="40" height="20" as="geometry" />
        </mxCell>
        <mxCell id="waWkEZUE0Ls55BU8JHt7-253" value="IC-3" style="text;html=1;strokeColor=none;fillColor=none;align=center;verticalAlign=middle;whiteSpace=wrap;rounded=0;" parent="1" vertex="1">
          <mxGeometry x="1915" y="930" width="40" height="20" as="geometry" />
        </mxCell>
        <mxCell id="waWkEZUE0Ls55BU8JHt7-254" style="edgeStyle=orthogonalEdgeStyle;curved=1;rounded=0;orthogonalLoop=1;jettySize=auto;html=1;entryX=0.5;entryY=0;entryDx=0;entryDy=0;startSize=7;endArrow=none;endFill=0;endSize=3;exitX=0.25;exitY=1;exitDx=0;exitDy=0;" parent="1" source="waWkEZUE0Ls55BU8JHt7-258" target="waWkEZUE0Ls55BU8JHt7-260" edge="1">
          <mxGeometry relative="1" as="geometry">
            <mxPoint x="1620" y="1059" as="sourcePoint" />
            <Array as="points">
              <mxPoint x="1620" y="1160" />
              <mxPoint x="1560" y="1160" />
            </Array>
          </mxGeometry>
        </mxCell>
        <mxCell id="waWkEZUE0Ls55BU8JHt7-255" style="edgeStyle=orthogonalEdgeStyle;curved=1;rounded=0;orthogonalLoop=1;jettySize=auto;html=1;exitX=0.5;exitY=1;exitDx=0;exitDy=0;startSize=7;endArrow=none;endFill=0;endSize=3;" parent="1" source="waWkEZUE0Ls55BU8JHt7-258" target="waWkEZUE0Ls55BU8JHt7-261" edge="1">
          <mxGeometry relative="1" as="geometry">
            <Array as="points">
              <mxPoint x="1645" y="1158" />
              <mxPoint x="1715" y="1158" />
              <mxPoint x="1715" y="1147" />
              <mxPoint x="1720" y="1147" />
            </Array>
          </mxGeometry>
        </mxCell>
        <mxCell id="waWkEZUE0Ls55BU8JHt7-256" style="edgeStyle=orthogonalEdgeStyle;curved=1;rounded=0;orthogonalLoop=1;jettySize=auto;html=1;exitX=0.5;exitY=1;exitDx=0;exitDy=0;startSize=7;endArrow=none;endFill=0;endSize=3;" parent="1" source="waWkEZUE0Ls55BU8JHt7-258" target="waWkEZUE0Ls55BU8JHt7-262" edge="1">
          <mxGeometry relative="1" as="geometry" />
        </mxCell>
        <mxCell id="uyxW4Ae9vjr0Irof40sM-12" style="edgeStyle=orthogonalEdgeStyle;shape=flexArrow;rounded=0;orthogonalLoop=1;jettySize=auto;html=1;exitX=1;exitY=0.5;exitDx=0;exitDy=0;entryX=0;entryY=0.5;entryDx=0;entryDy=0;width=5;startWidth=7;endWidth=7;" parent="1" source="waWkEZUE0Ls55BU8JHt7-258" target="uyxW4Ae9vjr0Irof40sM-11" edge="1">
          <mxGeometry relative="1" as="geometry" />
        </mxCell>
        <mxCell id="uyxW4Ae9vjr0Irof40sM-15" style="edgeStyle=orthogonalEdgeStyle;shape=flexArrow;rounded=0;orthogonalLoop=1;jettySize=auto;html=1;exitX=0.5;exitY=0;exitDx=0;exitDy=0;entryX=0.5;entryY=1;entryDx=0;entryDy=0;width=5;endWidth=7;startWidth=7;" parent="1" source="waWkEZUE0Ls55BU8JHt7-258" target="uyxW4Ae9vjr0Irof40sM-14" edge="1">
          <mxGeometry relative="1" as="geometry" />
        </mxCell>
        <mxCell id="waWkEZUE0Ls55BU8JHt7-258" value="Breaker" style="whiteSpace=wrap;html=1;align=center;" parent="1" vertex="1">
          <mxGeometry x="1595" y="1107" width="100" height="40" as="geometry" />
        </mxCell>
        <mxCell id="waWkEZUE0Ls55BU8JHt7-260" value="id" style="ellipse;whiteSpace=wrap;html=1;align=center;" parent="1" vertex="1">
          <mxGeometry x="1510" y="1169" width="100" height="40" as="geometry" />
        </mxCell>
        <mxCell id="waWkEZUE0Ls55BU8JHt7-261" value="max voltge" style="ellipse;whiteSpace=wrap;html=1;align=center;" parent="1" vertex="1">
          <mxGeometry x="1670" y="1158" width="100" height="40" as="geometry" />
        </mxCell>
        <mxCell id="waWkEZUE0Ls55BU8JHt7-262" value="max current" style="ellipse;whiteSpace=wrap;html=1;align=center;" parent="1" vertex="1">
          <mxGeometry x="1590" y="1198" width="100" height="40" as="geometry" />
        </mxCell>
        <mxCell id="waWkEZUE0Ls55BU8JHt7-263" value="IC-4" style="text;html=1;strokeColor=none;fillColor=none;align=center;verticalAlign=middle;whiteSpace=wrap;rounded=0;" parent="1" vertex="1">
          <mxGeometry x="1660" y="1060" width="40" height="20" as="geometry" />
        </mxCell>
        <mxCell id="waWkEZUE0Ls55BU8JHt7-264" value="IC-4" style="text;html=1;strokeColor=none;fillColor=none;align=center;verticalAlign=middle;whiteSpace=wrap;rounded=0;" parent="1" vertex="1">
          <mxGeometry x="1776" y="1010" width="40" height="20" as="geometry" />
        </mxCell>
        <mxCell id="waWkEZUE0Ls55BU8JHt7-265" style="edgeStyle=orthogonalEdgeStyle;curved=1;rounded=0;orthogonalLoop=1;jettySize=auto;html=1;exitX=0.5;exitY=1;exitDx=0;exitDy=0;endArrow=classic;endFill=1;" parent="1" source="waWkEZUE0Ls55BU8JHt7-269" target="waWkEZUE0Ls55BU8JHt7-251" edge="1">
          <mxGeometry relative="1" as="geometry" />
        </mxCell>
        <mxCell id="waWkEZUE0Ls55BU8JHt7-266" style="edgeStyle=orthogonalEdgeStyle;curved=1;rounded=0;orthogonalLoop=1;jettySize=auto;html=1;exitX=0.25;exitY=0;exitDx=0;exitDy=0;entryX=0.5;entryY=1;entryDx=0;entryDy=0;endArrow=none;endFill=0;" parent="1" source="waWkEZUE0Ls55BU8JHt7-269" target="waWkEZUE0Ls55BU8JHt7-270" edge="1">
          <mxGeometry relative="1" as="geometry" />
        </mxCell>
        <mxCell id="waWkEZUE0Ls55BU8JHt7-267" style="edgeStyle=orthogonalEdgeStyle;curved=1;rounded=0;orthogonalLoop=1;jettySize=auto;html=1;exitX=0.75;exitY=0;exitDx=0;exitDy=0;entryX=0.5;entryY=1;entryDx=0;entryDy=0;endArrow=none;endFill=0;" parent="1" source="waWkEZUE0Ls55BU8JHt7-269" target="waWkEZUE0Ls55BU8JHt7-271" edge="1">
          <mxGeometry relative="1" as="geometry" />
        </mxCell>
        <mxCell id="waWkEZUE0Ls55BU8JHt7-268" style="edgeStyle=orthogonalEdgeStyle;curved=1;rounded=0;orthogonalLoop=1;jettySize=auto;html=1;exitX=1;exitY=0.5;exitDx=0;exitDy=0;endArrow=classic;endFill=1;shape=flexArrow;width=5;endWidth=7;" parent="1" source="waWkEZUE0Ls55BU8JHt7-269" target="waWkEZUE0Ls55BU8JHt7-273" edge="1">
          <mxGeometry relative="1" as="geometry" />
        </mxCell>
        <mxCell id="waWkEZUE0Ls55BU8JHt7-269" value="Substation" style="whiteSpace=wrap;html=1;align=center;" parent="1" vertex="1">
          <mxGeometry x="1970" y="794" width="100" height="40" as="geometry" />
        </mxCell>
        <mxCell id="waWkEZUE0Ls55BU8JHt7-270" value="GPS coordinates" style="ellipse;whiteSpace=wrap;html=1;align=center;" parent="1" vertex="1">
          <mxGeometry x="1915" y="710" width="100" height="40" as="geometry" />
        </mxCell>
        <mxCell id="waWkEZUE0Ls55BU8JHt7-271" value="name" style="ellipse;whiteSpace=wrap;html=1;align=center;" parent="1" vertex="1">
          <mxGeometry x="2048" y="710" width="100" height="40" as="geometry" />
        </mxCell>
        <mxCell id="waWkEZUE0Ls55BU8JHt7-272" style="edgeStyle=orthogonalEdgeStyle;curved=1;rounded=0;orthogonalLoop=1;jettySize=auto;html=1;exitX=1;exitY=0.5;exitDx=0;exitDy=0;endArrow=none;endFill=0;entryX=0;entryY=0.5;entryDx=0;entryDy=0;" parent="1" source="waWkEZUE0Ls55BU8JHt7-273" target="waWkEZUE0Ls55BU8JHt7-275" edge="1">
          <mxGeometry relative="1" as="geometry">
            <mxPoint x="2440" y="770.3333333333335" as="targetPoint" />
          </mxGeometry>
        </mxCell>
        <mxCell id="waWkEZUE0Ls55BU8JHt7-273" value="supervises" style="shape=rhombus;perimeter=rhombusPerimeter;whiteSpace=wrap;html=1;align=center;" parent="1" vertex="1">
          <mxGeometry x="2240" y="740" width="120" height="60" as="geometry" />
        </mxCell>
        <mxCell id="waWkEZUE0Ls55BU8JHt7-274" style="edgeStyle=orthogonalEdgeStyle;curved=1;rounded=0;orthogonalLoop=1;jettySize=auto;html=1;exitX=1;exitY=0.5;exitDx=0;exitDy=0;entryX=0.007;entryY=0.41;entryDx=0;entryDy=0;entryPerimeter=0;endArrow=none;endFill=0;" parent="1" source="waWkEZUE0Ls55BU8JHt7-275" target="waWkEZUE0Ls55BU8JHt7-313" edge="1">
          <mxGeometry relative="1" as="geometry" />
        </mxCell>
        <mxCell id="waWkEZUE0Ls55BU8JHt7-275" value="Supervisor" style="whiteSpace=wrap;html=1;align=center;" parent="1" vertex="1">
          <mxGeometry x="2410" y="750" width="100" height="40" as="geometry" />
        </mxCell>
        <mxCell id="waWkEZUE0Ls55BU8JHt7-276" value="IC-5" style="text;html=1;strokeColor=none;fillColor=none;align=center;verticalAlign=middle;whiteSpace=wrap;rounded=0;" parent="1" vertex="1">
          <mxGeometry x="2360" y="740" width="40" height="20" as="geometry" />
        </mxCell>
        <mxCell id="waWkEZUE0Ls55BU8JHt7-277" style="edgeStyle=orthogonalEdgeStyle;curved=1;rounded=0;orthogonalLoop=1;jettySize=auto;html=1;exitX=0.5;exitY=1;exitDx=0;exitDy=0;entryX=0.59;entryY=0.029;entryDx=0;entryDy=0;entryPerimeter=0;endArrow=none;endFill=0;" parent="1" edge="1">
          <mxGeometry relative="1" as="geometry">
            <mxPoint x="1865" y="1340" as="sourcePoint" />
            <mxPoint x="1799" y="1361.1599999999999" as="targetPoint" />
          </mxGeometry>
        </mxCell>
        <mxCell id="waWkEZUE0Ls55BU8JHt7-278" style="edgeStyle=orthogonalEdgeStyle;curved=1;rounded=0;orthogonalLoop=1;jettySize=auto;html=1;exitX=0.5;exitY=1;exitDx=0;exitDy=0;entryX=0.5;entryY=0;entryDx=0;entryDy=0;endArrow=none;endFill=0;" parent="1" target="waWkEZUE0Ls55BU8JHt7-287" edge="1">
          <mxGeometry relative="1" as="geometry">
            <mxPoint x="1865" y="1340" as="sourcePoint" />
          </mxGeometry>
        </mxCell>
        <mxCell id="waWkEZUE0Ls55BU8JHt7-279" style="edgeStyle=orthogonalEdgeStyle;curved=1;rounded=0;orthogonalLoop=1;jettySize=auto;html=1;exitX=0.5;exitY=1;exitDx=0;exitDy=0;entryX=0.5;entryY=0;entryDx=0;entryDy=0;endArrow=none;endFill=0;" parent="1" target="waWkEZUE0Ls55BU8JHt7-286" edge="1">
          <mxGeometry relative="1" as="geometry">
            <mxPoint x="1865" y="1340" as="sourcePoint" />
          </mxGeometry>
        </mxCell>
        <mxCell id="waWkEZUE0Ls55BU8JHt7-280" style="edgeStyle=orthogonalEdgeStyle;curved=1;rounded=0;orthogonalLoop=1;jettySize=auto;html=1;entryX=1;entryY=0.5;entryDx=0;entryDy=0;endArrow=classic;endFill=1;exitX=0.004;exitY=0.375;exitDx=0;exitDy=0;exitPerimeter=0;" parent="1" source="Mfam9huK_Olg97zC7m3h-4" target="waWkEZUE0Ls55BU8JHt7-289" edge="1">
          <mxGeometry relative="1" as="geometry">
            <mxPoint x="1815" y="1320" as="sourcePoint" />
          </mxGeometry>
        </mxCell>
        <mxCell id="waWkEZUE0Ls55BU8JHt7-281" style="edgeStyle=orthogonalEdgeStyle;rounded=0;orthogonalLoop=1;jettySize=auto;html=1;exitX=1;exitY=0.5;exitDx=0;exitDy=0;entryX=0.5;entryY=1;entryDx=0;entryDy=0;endArrow=classic;endFill=1;" parent="1" target="waWkEZUE0Ls55BU8JHt7-291" edge="1">
          <mxGeometry relative="1" as="geometry">
            <mxPoint x="1915" y="1320" as="sourcePoint" />
          </mxGeometry>
        </mxCell>
        <mxCell id="waWkEZUE0Ls55BU8JHt7-282" style="edgeStyle=orthogonalEdgeStyle;rounded=0;orthogonalLoop=1;jettySize=auto;html=1;exitX=1;exitY=0.75;exitDx=0;exitDy=0;endArrow=classic;endFill=1;shape=flexArrow;width=5;startWidth=20;endWidth=7;" parent="1" edge="1">
          <mxGeometry relative="1" as="geometry">
            <mxPoint x="2580" y="1050" as="targetPoint" />
            <mxPoint x="1915" y="1330" as="sourcePoint" />
          </mxGeometry>
        </mxCell>
        <mxCell id="waWkEZUE0Ls55BU8JHt7-283" style="edgeStyle=orthogonalEdgeStyle;rounded=0;orthogonalLoop=1;jettySize=auto;html=1;exitX=0.01;exitY=0.618;exitDx=0;exitDy=0;entryX=0.5;entryY=1;entryDx=0;entryDy=0;endArrow=classic;endFill=1;exitPerimeter=0;" parent="1" source="Mfam9huK_Olg97zC7m3h-4" target="waWkEZUE0Ls55BU8JHt7-292" edge="1">
          <mxGeometry relative="1" as="geometry">
            <Array as="points">
              <mxPoint x="1710" y="1330" />
              <mxPoint x="1710" y="1390" />
              <mxPoint x="1270" y="1390" />
            </Array>
            <mxPoint x="1815" y="1330" as="sourcePoint" />
          </mxGeometry>
        </mxCell>
        <mxCell id="waWkEZUE0Ls55BU8JHt7-286" value="severity" style="ellipse;whiteSpace=wrap;html=1;align=center;" parent="1" vertex="1">
          <mxGeometry x="1920" y="1370" width="100" height="40" as="geometry" />
        </mxCell>
        <mxCell id="waWkEZUE0Ls55BU8JHt7-287" value="description" style="ellipse;whiteSpace=wrap;html=1;align=center;" parent="1" vertex="1">
          <mxGeometry x="1810" y="1400" width="100" height="40" as="geometry" />
        </mxCell>
        <mxCell id="waWkEZUE0Ls55BU8JHt7-288" style="edgeStyle=orthogonalEdgeStyle;curved=1;rounded=0;orthogonalLoop=1;jettySize=auto;html=1;exitX=0.5;exitY=0;exitDx=0;exitDy=0;entryX=0.5;entryY=1;entryDx=0;entryDy=0;endArrow=none;endFill=0;" parent="1" source="waWkEZUE0Ls55BU8JHt7-289" target="waWkEZUE0Ls55BU8JHt7-228" edge="1">
          <mxGeometry relative="1" as="geometry" />
        </mxCell>
        <mxCell id="waWkEZUE0Ls55BU8JHt7-289" value="occurs" style="shape=rhombus;perimeter=rhombusPerimeter;whiteSpace=wrap;html=1;align=center;" parent="1" vertex="1">
          <mxGeometry x="1400" y="1290" width="120" height="60" as="geometry" />
        </mxCell>
        <mxCell id="waWkEZUE0Ls55BU8JHt7-290" style="edgeStyle=orthogonalEdgeStyle;curved=1;rounded=0;orthogonalLoop=1;jettySize=auto;html=1;exitX=0.5;exitY=0;exitDx=0;exitDy=0;entryX=0.565;entryY=1.05;entryDx=0;entryDy=0;entryPerimeter=0;endArrow=none;endFill=0;" parent="1" source="waWkEZUE0Ls55BU8JHt7-291" target="waWkEZUE0Ls55BU8JHt7-241" edge="1">
          <mxGeometry relative="1" as="geometry" />
        </mxCell>
        <mxCell id="waWkEZUE0Ls55BU8JHt7-291" value="occurs" style="shape=rhombus;perimeter=rhombusPerimeter;whiteSpace=wrap;html=1;align=center;" parent="1" vertex="1">
          <mxGeometry x="2148" y="1130" width="120" height="60" as="geometry" />
        </mxCell>
        <mxCell id="waWkEZUE0Ls55BU8JHt7-292" value="occurs" style="shape=rhombus;perimeter=rhombusPerimeter;whiteSpace=wrap;html=1;align=center;" parent="1" vertex="1">
          <mxGeometry x="1210" y="1104" width="120" height="60" as="geometry" />
        </mxCell>
        <mxCell id="waWkEZUE0Ls55BU8JHt7-293" style="edgeStyle=orthogonalEdgeStyle;rounded=0;orthogonalLoop=1;jettySize=auto;html=1;exitX=0.5;exitY=1;exitDx=0;exitDy=0;entryX=0;entryY=0;entryDx=0;entryDy=0;endArrow=none;endFill=0;curved=1;" parent="1" source="waWkEZUE0Ls55BU8JHt7-294" target="waWkEZUE0Ls55BU8JHt7-289" edge="1">
          <mxGeometry relative="1" as="geometry" />
        </mxCell>
        <mxCell id="waWkEZUE0Ls55BU8JHt7-294" value="point of the line" style="ellipse;whiteSpace=wrap;html=1;align=center;" parent="1" vertex="1">
          <mxGeometry x="1310" y="1240" width="100" height="40" as="geometry" />
        </mxCell>
        <mxCell id="waWkEZUE0Ls55BU8JHt7-295" value="IC-6" style="text;html=1;strokeColor=none;fillColor=none;align=center;verticalAlign=middle;whiteSpace=wrap;rounded=0;" parent="1" vertex="1">
          <mxGeometry x="1330" y="1300" width="40" height="20" as="geometry" />
        </mxCell>
        <mxCell id="waWkEZUE0Ls55BU8JHt7-296" style="edgeStyle=orthogonalEdgeStyle;rounded=0;orthogonalLoop=1;jettySize=auto;html=1;exitX=1;exitY=0.75;exitDx=0;exitDy=0;endArrow=none;endFill=0;curved=1;" parent="1" source="Mfam9huK_Olg97zC7m3h-1" target="waWkEZUE0Ls55BU8JHt7-299" edge="1">
          <mxGeometry relative="1" as="geometry">
            <mxPoint x="1985" y="1203" as="sourcePoint" />
          </mxGeometry>
        </mxCell>
        <mxCell id="uyxW4Ae9vjr0Irof40sM-6" style="edgeStyle=orthogonalEdgeStyle;rounded=0;orthogonalLoop=1;jettySize=auto;html=1;exitX=1;exitY=0.25;exitDx=0;exitDy=0;entryX=0.5;entryY=1;entryDx=0;entryDy=0;shape=flexArrow;width=5;endWidth=7;" parent="1" target="uyxW4Ae9vjr0Irof40sM-5" edge="1">
          <mxGeometry relative="1" as="geometry">
            <mxPoint x="1985" y="1183" as="sourcePoint" />
          </mxGeometry>
        </mxCell>
        <mxCell id="uyxW4Ae9vjr0Irof40sM-9" style="edgeStyle=orthogonalEdgeStyle;shape=flexArrow;rounded=0;orthogonalLoop=1;jettySize=auto;html=1;exitX=0;exitY=0.5;exitDx=0;exitDy=0;entryX=1;entryY=0.5;entryDx=0;entryDy=0;width=5;endWidth=7;" parent="1" target="uyxW4Ae9vjr0Irof40sM-8" edge="1">
          <mxGeometry relative="1" as="geometry">
            <Array as="points">
              <mxPoint x="1850" y="1193" />
              <mxPoint x="1850" y="1220" />
              <mxPoint x="1760" y="1220" />
              <mxPoint x="1760" y="1280" />
            </Array>
            <mxPoint x="1885" y="1193" as="sourcePoint" />
          </mxGeometry>
        </mxCell>
        <mxCell id="waWkEZUE0Ls55BU8JHt7-299" value="current" style="ellipse;whiteSpace=wrap;html=1;align=center;" parent="1" vertex="1">
          <mxGeometry x="1988" y="1216" width="100" height="40" as="geometry" />
        </mxCell>
        <mxCell id="waWkEZUE0Ls55BU8JHt7-300" style="edgeStyle=orthogonalEdgeStyle;curved=1;rounded=0;orthogonalLoop=1;jettySize=auto;html=1;exitX=0.5;exitY=0;exitDx=0;exitDy=0;entryX=0.5;entryY=1;entryDx=0;entryDy=0;endArrow=none;endFill=0;" parent="1" target="Mfam9huK_Olg97zC7m3h-1" edge="1">
          <mxGeometry relative="1" as="geometry">
            <mxPoint x="1933" y="1236" as="sourcePoint" />
            <mxPoint x="1935" y="1213" as="targetPoint" />
          </mxGeometry>
        </mxCell>
        <mxCell id="Mfam9huK_Olg97zC7m3h-2" style="edgeStyle=orthogonalEdgeStyle;rounded=0;orthogonalLoop=1;jettySize=auto;html=1;exitX=1;exitY=0;exitDx=0;exitDy=0;entryX=0.005;entryY=0.846;entryDx=0;entryDy=0;entryPerimeter=0;endArrow=none;endFill=0;curved=1;" edge="1" parent="1" source="waWkEZUE0Ls55BU8JHt7-302" target="Mfam9huK_Olg97zC7m3h-1">
          <mxGeometry relative="1" as="geometry">
            <Array as="points">
              <mxPoint x="1870" y="1252" />
              <mxPoint x="1870" y="1240" />
              <mxPoint x="1863" y="1240" />
              <mxPoint x="1863" y="1220" />
              <mxPoint x="1884" y="1220" />
            </Array>
          </mxGeometry>
        </mxCell>
        <mxCell id="waWkEZUE0Ls55BU8JHt7-302" value="&lt;span style=&quot;border-bottom: 1px dotted&quot;&gt;date and time&lt;/span&gt;" style="ellipse;whiteSpace=wrap;html=1;align=center;" parent="1" vertex="1">
          <mxGeometry x="1768" y="1246" width="100" height="40" as="geometry" />
        </mxCell>
        <mxCell id="waWkEZUE0Ls55BU8JHt7-303" style="edgeStyle=orthogonalEdgeStyle;rounded=0;orthogonalLoop=1;jettySize=auto;html=1;exitX=0.5;exitY=1;exitDx=0;exitDy=0;entryX=0.5;entryY=0;entryDx=0;entryDy=0;endArrow=none;endFill=0;" parent="1" source="waWkEZUE0Ls55BU8JHt7-305" edge="1">
          <mxGeometry relative="1" as="geometry">
            <mxPoint x="2580" y="990" as="targetPoint" />
          </mxGeometry>
        </mxCell>
        <mxCell id="waWkEZUE0Ls55BU8JHt7-304" style="edgeStyle=orthogonalEdgeStyle;rounded=0;orthogonalLoop=1;jettySize=auto;html=1;exitX=0.5;exitY=0;exitDx=0;exitDy=0;entryX=-0.004;entryY=0.646;entryDx=0;entryDy=0;entryPerimeter=0;endArrow=none;endFill=0;curved=1;" parent="1" source="waWkEZUE0Ls55BU8JHt7-305" target="waWkEZUE0Ls55BU8JHt7-313" edge="1">
          <mxGeometry relative="1" as="geometry" />
        </mxCell>
        <mxCell id="waWkEZUE0Ls55BU8JHt7-305" value="Analyst" style="whiteSpace=wrap;html=1;align=center;" parent="1" vertex="1">
          <mxGeometry x="2530" y="860" width="100" height="40" as="geometry" />
        </mxCell>
        <mxCell id="waWkEZUE0Ls55BU8JHt7-307" style="edgeStyle=orthogonalEdgeStyle;shape=link;rounded=0;orthogonalLoop=1;jettySize=auto;html=1;exitX=0;exitY=0.5;exitDx=0;exitDy=0;entryX=1;entryY=0;entryDx=0;entryDy=0;endArrow=none;endFill=0;" parent="1" source="waWkEZUE0Ls55BU8JHt7-308" target="uyxW4Ae9vjr0Irof40sM-3" edge="1">
          <mxGeometry relative="1" as="geometry">
            <mxPoint x="2610" y="1005" as="targetPoint" />
          </mxGeometry>
        </mxCell>
        <mxCell id="waWkEZUE0Ls55BU8JHt7-308" value="&lt;span style=&quot;border-bottom: 1px dotted&quot;&gt;cause&lt;/span&gt;" style="ellipse;whiteSpace=wrap;html=1;align=center;" parent="1" vertex="1">
          <mxGeometry x="2700" y="980" width="100" height="40" as="geometry" />
        </mxCell>
        <mxCell id="waWkEZUE0Ls55BU8JHt7-309" style="edgeStyle=orthogonalEdgeStyle;shape=link;rounded=0;orthogonalLoop=1;jettySize=auto;html=1;exitX=0;exitY=0.5;exitDx=0;exitDy=0;entryX=1;entryY=1;entryDx=0;entryDy=0;endArrow=none;endFill=0;" parent="1" source="waWkEZUE0Ls55BU8JHt7-310" target="uyxW4Ae9vjr0Irof40sM-3" edge="1">
          <mxGeometry relative="1" as="geometry">
            <mxPoint x="2616.96" y="1036.02" as="targetPoint" />
          </mxGeometry>
        </mxCell>
        <mxCell id="waWkEZUE0Ls55BU8JHt7-310" value="&lt;span style=&quot;border-bottom: 1px dotted&quot;&gt;report&lt;/span&gt;" style="ellipse;whiteSpace=wrap;html=1;align=center;" parent="1" vertex="1">
          <mxGeometry x="2700" y="1050" width="100" height="40" as="geometry" />
        </mxCell>
        <mxCell id="waWkEZUE0Ls55BU8JHt7-311" value="Person" style="whiteSpace=wrap;html=1;align=center;" parent="1" vertex="1">
          <mxGeometry x="2660" y="600" width="100" height="40" as="geometry" />
        </mxCell>
        <mxCell id="waWkEZUE0Ls55BU8JHt7-312" style="rounded=0;orthogonalLoop=1;jettySize=auto;html=1;exitX=1;exitY=0.5;exitDx=0;exitDy=0;entryX=0.5;entryY=1;entryDx=0;entryDy=0;endArrow=none;endFill=0;shape=link;" parent="1" source="waWkEZUE0Ls55BU8JHt7-313" target="waWkEZUE0Ls55BU8JHt7-311" edge="1">
          <mxGeometry relative="1" as="geometry" />
        </mxCell>
        <mxCell id="waWkEZUE0Ls55BU8JHt7-313" value="" style="triangle;whiteSpace=wrap;html=1;rotation=-90;" parent="1" vertex="1">
          <mxGeometry x="2680" y="650" width="60" height="80" as="geometry" />
        </mxCell>
        <mxCell id="waWkEZUE0Ls55BU8JHt7-314" value="IC-7" style="text;html=1;strokeColor=none;fillColor=none;align=center;verticalAlign=middle;whiteSpace=wrap;rounded=0;" parent="1" vertex="1">
          <mxGeometry x="2590" y="940" width="40" height="20" as="geometry" />
        </mxCell>
        <mxCell id="waWkEZUE0Ls55BU8JHt7-315" style="edgeStyle=orthogonalEdgeStyle;rounded=0;orthogonalLoop=1;jettySize=auto;html=1;exitX=0.5;exitY=1;exitDx=0;exitDy=0;endArrow=none;endFill=0;curved=1;" parent="1" source="waWkEZUE0Ls55BU8JHt7-316" target="waWkEZUE0Ls55BU8JHt7-311" edge="1">
          <mxGeometry relative="1" as="geometry" />
        </mxCell>
        <mxCell id="waWkEZUE0Ls55BU8JHt7-316" value="&lt;span style=&quot;border-bottom: 1px dotted&quot;&gt;&lt;u&gt;address&lt;/u&gt;&lt;/span&gt;" style="ellipse;whiteSpace=wrap;html=1;align=center;" parent="1" vertex="1">
          <mxGeometry x="2580" y="510" width="100" height="40" as="geometry" />
        </mxCell>
        <mxCell id="waWkEZUE0Ls55BU8JHt7-317" style="edgeStyle=orthogonalEdgeStyle;curved=1;rounded=0;orthogonalLoop=1;jettySize=auto;html=1;exitX=0.5;exitY=1;exitDx=0;exitDy=0;endArrow=none;endFill=0;" parent="1" source="waWkEZUE0Ls55BU8JHt7-318" edge="1">
          <mxGeometry relative="1" as="geometry">
            <mxPoint x="2710" y="600" as="targetPoint" />
          </mxGeometry>
        </mxCell>
        <mxCell id="waWkEZUE0Ls55BU8JHt7-318" value="&lt;span style=&quot;border-bottom: 1px dotted&quot;&gt;&lt;u&gt;name&lt;/u&gt;&lt;/span&gt;" style="ellipse;whiteSpace=wrap;html=1;align=center;" parent="1" vertex="1">
          <mxGeometry x="2710" y="510" width="100" height="40" as="geometry" />
        </mxCell>
        <mxCell id="waWkEZUE0Ls55BU8JHt7-319" style="edgeStyle=orthogonalEdgeStyle;curved=1;rounded=0;orthogonalLoop=1;jettySize=auto;html=1;exitX=0.5;exitY=1;exitDx=0;exitDy=0;endArrow=none;endFill=0;" parent="1" source="waWkEZUE0Ls55BU8JHt7-320" target="waWkEZUE0Ls55BU8JHt7-311" edge="1">
          <mxGeometry relative="1" as="geometry" />
        </mxCell>
        <mxCell id="waWkEZUE0Ls55BU8JHt7-320" value="&lt;span style=&quot;border-bottom: 1px dotted&quot;&gt;phone&lt;/span&gt;" style="ellipse;whiteSpace=wrap;html=1;align=center;" parent="1" vertex="1">
          <mxGeometry x="2820" y="520" width="100" height="40" as="geometry" />
        </mxCell>
        <mxCell id="waWkEZUE0Ls55BU8JHt7-321" style="edgeStyle=orthogonalEdgeStyle;curved=1;rounded=0;orthogonalLoop=1;jettySize=auto;html=1;exitX=1;exitY=0.5;exitDx=0;exitDy=0;entryX=0;entryY=0.5;entryDx=0;entryDy=0;endArrow=none;endFill=0;" parent="1" source="waWkEZUE0Ls55BU8JHt7-322" target="waWkEZUE0Ls55BU8JHt7-311" edge="1">
          <mxGeometry relative="1" as="geometry" />
        </mxCell>
        <mxCell id="waWkEZUE0Ls55BU8JHt7-322" value="&lt;span style=&quot;border-bottom: 1px dotted&quot;&gt;Tax Payer ID&lt;/span&gt;" style="ellipse;whiteSpace=wrap;html=1;align=center;" parent="1" vertex="1">
          <mxGeometry x="2510" y="580" width="100" height="40" as="geometry" />
        </mxCell>
        <mxCell id="waWkEZUE0Ls55BU8JHt7-323" value="IC-8" style="text;html=1;strokeColor=none;fillColor=none;align=center;verticalAlign=middle;whiteSpace=wrap;rounded=0;" parent="1" vertex="1">
          <mxGeometry x="2800" y="580" width="40" height="20" as="geometry" />
        </mxCell>
        <mxCell id="waWkEZUE0Ls55BU8JHt7-324" value="IC-9" style="text;html=1;strokeColor=none;fillColor=none;align=center;verticalAlign=middle;whiteSpace=wrap;rounded=0;" parent="1" vertex="1">
          <mxGeometry x="2600" y="610" width="40" height="20" as="geometry" />
        </mxCell>
        <mxCell id="waWkEZUE0Ls55BU8JHt7-328" value="&lt;div&gt;&lt;b&gt;IC1 - Each line must have atmost 2 bus bars&lt;/b&gt;&lt;/div&gt;&lt;div&gt;&lt;b&gt;&lt;br&gt;&lt;/b&gt;&lt;/div&gt;&lt;div&gt;&lt;b&gt;IC2 - Each Transformer must have atmost 2 bus bars&lt;/b&gt;&lt;/div&gt;&lt;div&gt;&lt;b&gt;&lt;br&gt;&lt;/b&gt;&lt;/div&gt;&lt;div&gt;&lt;b&gt;IC3 - Voltages of Bus bars must match the voltages of transformer&lt;/b&gt;&lt;/div&gt;&lt;div&gt;&lt;b&gt;&lt;br&gt;&lt;/b&gt;&lt;/div&gt;&lt;div&gt;&lt;b&gt;IC4 - Each breaker can only be used for a specific connection at any time&lt;/b&gt;&lt;/div&gt;&lt;div&gt;&lt;b&gt;&lt;br&gt;&lt;/b&gt;&lt;/div&gt;&lt;div&gt;&lt;b&gt;IC5 - Supersivor are often afraid of getting too near high voltage equipment&lt;/b&gt;&lt;/div&gt;&lt;div&gt;&lt;b&gt;&lt;br&gt;&lt;/b&gt;&lt;/div&gt;&lt;div&gt;&lt;b&gt;IC6 - The point is a decimal number with 3 integer digits and 2 decimals&lt;/b&gt;&lt;/div&gt;&lt;div&gt;&lt;b&gt;&lt;br&gt;&lt;/b&gt;&lt;/div&gt;&lt;div&gt;&lt;b&gt;IC7 - No person can analyse incidents respecting elements of the substation he/she supervises&lt;/b&gt;&lt;/div&gt;&lt;div&gt;&lt;b&gt;&lt;br&gt;&lt;/b&gt;&lt;/div&gt;&lt;div&gt;&lt;b&gt;IC8 -&amp;nbsp;&lt;span&gt;Phone&lt;/span&gt;&lt;span&gt;&amp;nbsp;numbers are unique&lt;/span&gt;&lt;/b&gt;&lt;/div&gt;&lt;div&gt;&lt;b&gt;&lt;br&gt;&lt;/b&gt;&lt;/div&gt;&lt;div&gt;&lt;b&gt;IC9 - &amp;nbsp;Tax ID numbers are unique&lt;/b&gt;&lt;/div&gt;&lt;div&gt;&lt;b&gt;&lt;br&gt;&lt;/b&gt;&lt;/div&gt;&lt;div&gt;&lt;b&gt;IC10 - Each history must record to a single connection&lt;/b&gt;&lt;/div&gt;" style="text;html=1;strokeColor=none;fillColor=none;align=left;verticalAlign=middle;whiteSpace=wrap;rounded=0;" parent="1" vertex="1">
          <mxGeometry x="2250" y="1430" width="560" height="430" as="geometry" />
        </mxCell>
        <mxCell id="uyxW4Ae9vjr0Irof40sM-16" style="edgeStyle=orthogonalEdgeStyle;shape=flexArrow;rounded=0;orthogonalLoop=1;jettySize=auto;html=1;exitX=0.536;exitY=1.01;exitDx=0;exitDy=0;entryX=0.5;entryY=0;entryDx=0;entryDy=0;width=5;endWidth=7;exitPerimeter=0;" parent="1" source="uyxW4Ae9vjr0Irof40sM-1" target="uyxW4Ae9vjr0Irof40sM-14" edge="1">
          <mxGeometry relative="1" as="geometry">
            <Array as="points">
              <mxPoint x="1660" y="991" />
              <mxPoint x="1660" y="1000" />
              <mxPoint x="1648" y="1000" />
            </Array>
          </mxGeometry>
        </mxCell>
        <mxCell id="uyxW4Ae9vjr0Irof40sM-1" value="" style="rounded=0;whiteSpace=wrap;html=1;fillColor=none;dashed=1;" parent="1" vertex="1">
          <mxGeometry x="1330" y="850" width="630" height="140" as="geometry" />
        </mxCell>
        <mxCell id="uyxW4Ae9vjr0Irof40sM-3" value="&lt;span&gt;analyses&lt;/span&gt;" style="shape=rhombus;double=1;perimeter=rhombusPerimeter;whiteSpace=wrap;html=1;align=center;" parent="1" vertex="1">
          <mxGeometry x="2520" y="990" width="120" height="60" as="geometry" />
        </mxCell>
        <mxCell id="uyxW4Ae9vjr0Irof40sM-13" style="edgeStyle=orthogonalEdgeStyle;shape=flexArrow;rounded=0;orthogonalLoop=1;jettySize=auto;html=1;entryX=1;entryY=0.5;entryDx=0;entryDy=0;width=5;endWidth=7;" parent="1" source="uyxW4Ae9vjr0Irof40sM-4" target="uyxW4Ae9vjr0Irof40sM-11" edge="1">
          <mxGeometry relative="1" as="geometry">
            <Array as="points">
              <mxPoint x="2040" y="1045" />
            </Array>
          </mxGeometry>
        </mxCell>
        <mxCell id="uyxW4Ae9vjr0Irof40sM-4" value="" style="rounded=0;whiteSpace=wrap;html=1;fillColor=none;dashed=1;" parent="1" vertex="1">
          <mxGeometry x="1700" y="850" width="750" height="140" as="geometry" />
        </mxCell>
        <mxCell id="uyxW4Ae9vjr0Irof40sM-7" value="" style="edgeStyle=orthogonalEdgeStyle;shape=link;rounded=0;orthogonalLoop=1;jettySize=auto;html=1;" parent="1" source="uyxW4Ae9vjr0Irof40sM-5" target="uyxW4Ae9vjr0Irof40sM-4" edge="1">
          <mxGeometry relative="1" as="geometry">
            <Array as="points">
              <mxPoint x="2070" y="1010" />
              <mxPoint x="2070" y="1010" />
            </Array>
          </mxGeometry>
        </mxCell>
        <mxCell id="uyxW4Ae9vjr0Irof40sM-5" value="records" style="shape=rhombus;double=1;perimeter=rhombusPerimeter;whiteSpace=wrap;html=1;align=center;" parent="1" vertex="1">
          <mxGeometry x="2020" y="1054" width="100" height="50" as="geometry" />
        </mxCell>
        <mxCell id="uyxW4Ae9vjr0Irof40sM-10" style="edgeStyle=orthogonalEdgeStyle;shape=link;rounded=0;orthogonalLoop=1;jettySize=auto;html=1;exitX=0;exitY=0.5;exitDx=0;exitDy=0;entryX=0.267;entryY=1.007;entryDx=0;entryDy=0;entryPerimeter=0;" parent="1" source="uyxW4Ae9vjr0Irof40sM-8" target="uyxW4Ae9vjr0Irof40sM-1" edge="1">
          <mxGeometry relative="1" as="geometry">
            <Array as="points">
              <mxPoint x="1498" y="1280" />
            </Array>
          </mxGeometry>
        </mxCell>
        <mxCell id="uyxW4Ae9vjr0Irof40sM-8" value="records" style="shape=rhombus;double=1;perimeter=rhombusPerimeter;whiteSpace=wrap;html=1;align=center;" parent="1" vertex="1">
          <mxGeometry x="1554" y="1255" width="100" height="50" as="geometry" />
        </mxCell>
        <mxCell id="uyxW4Ae9vjr0Irof40sM-11" value="connects" style="shape=rhombus;perimeter=rhombusPerimeter;whiteSpace=wrap;html=1;align=center;" parent="1" vertex="1">
          <mxGeometry x="1840" y="1020" width="100" height="50" as="geometry" />
        </mxCell>
        <mxCell id="uyxW4Ae9vjr0Irof40sM-14" value="connects" style="shape=rhombus;perimeter=rhombusPerimeter;whiteSpace=wrap;html=1;align=center;" parent="1" vertex="1">
          <mxGeometry x="1607" y="1026.5" width="82" height="41" as="geometry" />
        </mxCell>
        <mxCell id="uyxW4Ae9vjr0Irof40sM-19" value="IC-10" style="text;html=1;strokeColor=none;fillColor=none;align=center;verticalAlign=middle;whiteSpace=wrap;rounded=0;" parent="1" vertex="1">
          <mxGeometry x="1798" y="1190" width="40" height="20" as="geometry" />
        </mxCell>
        <mxCell id="uyxW4Ae9vjr0Irof40sM-20" value="IC-10" style="text;html=1;strokeColor=none;fillColor=none;align=center;verticalAlign=middle;whiteSpace=wrap;rounded=0;" parent="1" vertex="1">
          <mxGeometry x="2000" y="1154" width="40" height="20" as="geometry" />
        </mxCell>
        <mxCell id="Mfam9huK_Olg97zC7m3h-1" value="History" style="shape=ext;margin=3;double=1;whiteSpace=wrap;html=1;align=center;" vertex="1" parent="1">
          <mxGeometry x="1883" y="1169" width="100" height="40" as="geometry" />
        </mxCell>
        <mxCell id="Mfam9huK_Olg97zC7m3h-3" value="voltage" style="ellipse;whiteSpace=wrap;html=1;align=center;" vertex="1" parent="1">
          <mxGeometry x="1883" y="1230" width="100" height="40" as="geometry" />
        </mxCell>
        <mxCell id="Mfam9huK_Olg97zC7m3h-4" value="Incident" style="shape=ext;margin=3;double=1;whiteSpace=wrap;html=1;align=center;" vertex="1" parent="1">
          <mxGeometry x="1820" y="1305" width="100" height="40" as="geometry" />
        </mxCell>
        <mxCell id="Mfam9huK_Olg97zC7m3h-5" value="&lt;span style=&quot;border-bottom: 1px dotted&quot;&gt;instant&lt;/span&gt;" style="ellipse;whiteSpace=wrap;html=1;align=center;" vertex="1" parent="1">
          <mxGeometry x="1738" y="1360" width="100" height="40" as="geometry" />
        </mxCell>
      </root>
    </mxGraphModel>
  </diagram>
</mxfile>
